# xmcd
#
# Track frame offsets:
#	150
#	10351
#	18396
#	50436
#	67031
#	85613
#	100149
#	103012
#	119696
#	125866
#	131032
#	167625
#	186009
#	190970
#	200566
#	234741
#	251634
#	275219
#	296081
#	302723
#	329158
#	349564
#
# Disc length: 5071 seconds
# Revision: 0
# Processed by: cddbd v1.5.2PL0 Copyright (c) Steve Scherf et al.
# Submitted via: dBpowerAMP V12.0
#
DISCID=5b13cd16
DTITLE=Neal Shusterman - Vollendet- Der Aufstand CD4
DYEAR=1900
DGENRE=
TTITLE0=Kapitel 26 - Miracolina
TTITLE1=Kapitel 27 - Lev
TTITLE2=Kapitel 28 - Risa
TTITLE3=Kapitel 29 - Cam
TTITLE4=Kapitel 30 - Nelson
TTITLE5=Kapitel 31 - Miracolina
TTITLE6=Kapitel 32 - Lev
TTITLE7=Kapitel 33 - Miracolina
TTITLE8=Kapitel 34 - Lev
TTITLE9=Kapitel 35 - Nelson
TTITLE10=Kapitel 36a - Connor
TTITLE11=Kapitel 36b - Connor
TTITLE12=Kapitel 37 - Risa
TTITLE13=Kapitel 38 - Hayden
TTITLE14=Kapitel 39 - Connor
TTITLE15=Kapitel 40 - Starkey
TTITLE16=Kapitel 41 - Connor
TTITLE17=Kapitel 42 - Starkey
TTITLE18=Kapitel 43 - Lawine
TTITLE19=Kapitel 44 - Risa
TTITLE20=Kapitel 45 - Cam
TTITLE21=Kapitel 46a - Risa
EXTD=
EXTT0=
EXTT1=
EXTT2=
EXTT3=
EXTT4=
EXTT5=
EXTT6=
EXTT7=
EXTT8=
EXTT9=
EXTT10=
EXTT11=
EXTT12=
EXTT13=
EXTT14=
EXTT15=
EXTT16=
EXTT17=
EXTT18=
EXTT19=
EXTT20=
EXTT21=
PLAYORDER=
